# xmcd
#
# Track frame offsets:
#  150
#  19362
#  31847
#  50495
#  59917
#  70185
#  86285
#  100375
#  121125
#  132822
#  146665
#  159500
#
# Disc length: 2312 seconds
#
# Revision: 0
# Processed by: cddbd v1.4PL0 Copyright (c) Steve Scherf et al.
# Submitted via: AltoMP3_Maker 3.0
#
DISCID=a509060c
DTITLE=Silvio Rodriguez - Mujeres
DYEAR=1900
DGENRE=
TTITLE0=Mujeres
TTITLE1=En Estos Días
TTITLE2=Ya no te Espero
TTITLE3=¿Que hago ahora?
TTITLE4=Rio
TTITLE5=Ojalá
TTITLE6=Cierta Historia de Amor
TTITLE7=¿A Donde Van?
TTITLE8=Hoy no Quiero estar Lejos de la Casa y el Arbol
TTITLE9=Esto no es una Elegía
TTITLE10=Aceitunas
TTITLE11=Y Nada Más
EXTD=
EXTT0=
EXTT1=
EXTT2=
EXTT3=
EXTT4=
EXTT5=
EXTT6=
EXTT7=
EXTT8=
EXTT9=
EXTT10=
EXTT11=
PLAYORDER=
